<svg xmlns="http://www.w3.org/2000/svg" xmlns:xlink="http://www.w3.org/1999/xlink" width="980" height="711.3"><rect width="980" height="711.3" rx="5" ry="5" class="a"/><svg y="0%" x="0%"><circle cx="20" cy="20" r="6" fill="#ff5f58"/><circle cx="40" cy="20" r="6" fill="#ffbd2e"/><circle cx="60" cy="20" r="6" fill="#18c132"/></svg><svg height="651.3" viewBox="0 0 94 65.13" width="940" x="15" xmlns="http://www.w3.org/2000/svg" xmlns:xlink="http://www.w3.org/1999/xlink" y="50"><style>@keyframes r{0%{transform:translateX(0)}.73%{transform:translateX(-188px)}.91%{transform:translateX(-470px)}2.98%{transform:translateX(-564px)}3.9%{transform:translateX(-658px)}4.79%{transform:translateX(-752px)}5.68%{transform:translateX(-846px)}7.78%{transform:translateX(-940px)}8.7%{transform:translateX(-1034px)}10.99%{transform:translateX(-1128px)}13.22%{transform:translateX(-1222px)}13.99%{transform:translateX(-1316px)}14.02%{transform:translateX(-1410px)}18.44%{transform:translateX(-1504px)}21.14%{transform:translateX(-1598px)}23.91%{transform:translateX(-1692px)}25.12%{transform:translateX(-1786px)}27.32%{transform:translateX(-1880px)}28.21%{transform:translateX(-1974px)}29.13%{transform:translateX(-2068px)}29.99%{transform:translateX(-2162px)}32.22%{transform:translateX(-2256px)}32.73%{transform:translateX(-2350px)}33.23%{transform:translateX(-2444px)}34.29%{transform:translateX(-2538px)}35.27%{transform:translateX(-2632px)}35.81%{transform:translateX(-2726px)}36.51%{transform:translateX(-2820px)}37.31%{transform:translateX(-2914px)}39.09%{transform:translateX(-3196px)}39.45%{transform:translateX(-3384px)}53.67%{transform:translateX(-3478px)}53.78%{transform:translateX(-3572px)}53.8%{transform:translateX(-3666px)}54.93%{transform:translateX(-3948px)}54.94%{transform:translateX(-4042px)}54.99%{transform:translateX(-4136px)}55.07%{transform:translateX(-4324px)}55.08%{transform:translateX(-4512px)}55.19%{transform:translateX(-4606px)}55.22%{transform:translateX(-4700px)}74.1%{transform:translateX(-4794px)}99.67%{transform:translateX(-5170px)}to{transform:translateX(-5452px)}}.a{fill:#282d35}.f{fill:#66c2cd}.f,.g{font-weight:700}.g,.h{fill:#a8cc8c}.i,.j{fill:#b9c0cb}.j{text-decoration:underline}.k{fill:#66c2cd}.l{fill:#dbab79}.p{fill:#e88388;font-weight:700}</style><g font-size="1.67" font-family="Monaco,Consolas,Menlo,'Bitstream Vera Sans Mono','Powerline Symbols',monospace"><defs><symbol id="1"><text y="1.67" class="f">~</text></symbol><symbol id="2"><text y="1.67" class="g">➜</text></symbol><symbol id="3"><text y="1.67" class="g">➜</text><text x="2.004" y="1.67" class="h">fastic</text></symbol><symbol id="4"><text y="1.67" class="g">➜</text><text x="2.004" y="1.67" class="h">fastic</text><text x="9.018" y="1.67" class="i">8210</text></symbol><symbol id="5"><text y="1.67" class="g">➜</text><text x="2.004" y="1.67" class="h">fastic</text><text x="9.018" y="1.67" class="i">8210</text><text x="14.028" y="1.67" class="j">~/DEV/kepinski</text></symbol><symbol id="6"><text y="1.67" class="h">fastic</text><text x="7.014" y="1.67" class="i">›</text><text x="9.018" y="1.67" class="i">Running</text><text x="17.034" y="1.67" class="i">at</text><text x="20.04" y="1.67" class="i">http://localhost:8210</text><text x="42.084" y="1.67" class="i">[copied</text><text x="50.1" y="1.67" class="i">to</text><text x="53.106" y="1.67" class="i">clipboard]</text></symbol><symbol id="7"><text y="1.67" class="i">=&gt;</text><text x="3.006" y="1.67" class="i">Press</text><text x="9.018" y="1.67" class="i">Ctrl</text><text x="14.028" y="1.67" class="i">+</text><text x="16.032" y="1.67" class="i">C</text><text x="18.036" y="1.67" class="i">to</text><text x="21.042" y="1.67" class="i">stop</text></symbol><symbol id="8"><text y="1.67" class="h">fastic</text><text x="7.014" y="1.67" class="k">›</text><text x="10.02" y="1.67" class="k">GET</text><text x="14.028" y="1.67" class="l">200</text><text x="18.036" y="1.67" class="i">/</text></symbol><symbol id="9"><text y="1.67" class="h">fastic</text><text x="7.014" y="1.67" class="k">›</text><text x="10.02" y="1.67" class="k">GET</text><text x="14.028" y="1.67" class="l">200</text><text x="18.036" y="1.67" class="i">/css/landing.css</text></symbol><symbol id="10"><text y="1.67" class="h">fastic</text><text x="7.014" y="1.67" class="k">›</text><text x="10.02" y="1.67" class="k">GET</text><text x="14.028" y="1.67" class="l">200</text><text x="18.036" y="1.67" class="i">/js/click.js</text></symbol><symbol id="11"><text y="1.67" class="h">fastic</text><text x="7.014" y="1.67" class="k">›</text><text x="10.02" y="1.67" class="k">GET</text><text x="14.028" y="1.67" class="l">200</text><text x="18.036" y="1.67" class="i">/fonts/icon_email.svg</text></symbol><symbol id="12"><text y="1.67" class="h">fastic</text><text x="7.014" y="1.67" class="k">›</text><text x="10.02" y="1.67" class="k">GET</text><text x="14.028" y="1.67" class="l">200</text><text x="18.036" y="1.67" class="i">/fonts/icon_github.svg</text></symbol><symbol id="13"><text y="1.67" class="h">fastic</text><text x="7.014" y="1.67" class="k">›</text><text x="10.02" y="1.67" class="k">GET</text><text x="14.028" y="1.67" class="l">200</text><text x="18.036" y="1.67" class="i">/fonts/icon_twitter.svg</text></symbol><symbol id="14"><text y="1.67" class="h">fastic</text><text x="7.014" y="1.67" class="k">›</text><text x="10.02" y="1.67" class="k">GET</text><text x="14.028" y="1.67" class="l">200</text><text x="18.036" y="1.67" class="i">/images/avatar.jpg</text></symbol><symbol id="15"><text y="1.67" class="h">fastic</text><text x="7.014" y="1.67" class="k">›</text><text x="10.02" y="1.67" class="k">GET</text><text x="14.028" y="1.67" class="l">200</text><text x="18.036" y="1.67" class="i">/images/favicon-32x32.png</text></symbol><symbol id="16"><text y="1.67" class="h">fastic</text><text x="7.014" y="1.67" class="k">›</text><text x="10.02" y="1.67" class="k">GET</text><text x="14.028" y="1.67" class="l">200</text><text x="18.036" y="1.67" class="i">/images/favicon-16x16.png</text></symbol><symbol id="17"><text y="1.67" class="h">fastic</text><text x="7.014" y="1.67" class="k">›</text><text x="10.02" y="1.67" class="k">GET</text><text x="14.028" y="1.67" fill="#e88388">404</text><text x="18.036" y="1.67" class="i">/foobar</text></symbol><symbol id="18"><text y="1.67" class="i">^C</text></symbol><symbol id="19"><text y="1.67" class="f">~</text><text x="2.004" y="1.67" fill="#b9c0cb" font-weight="700">took</text><text x="7.014" y="1.67" fill="#dbab79" font-weight="700">15s</text></symbol><symbol id="20"><text y="1.67" class="p">➜</text></symbol><symbol id="a"><path fill="transparent" d="M0 0h94v30H0z"/></symbol></defs><path class="a" d="M0 0h94v65.13H0z"/><g style="animation-duration:25.144685s;animation-iteration-count:infinite;animation-name:r;animation-timing-function:steps(1,end)"><svg width="5546"><svg><use xlink:href="#a"/></svg><svg x="94"><use xlink:href="#a"/></svg><svg x="188"><use xlink:href="#a"/></svg><svg x="282"><use xlink:href="#a"/><use xlink:href="#1" y="2.171"/><use xlink:href="#2" y="4.342"/></svg><svg x="376"><use xlink:href="#a"/><use xlink:href="#1" y="2.171"/><use xlink:href="#2" y="4.342"/></svg><svg x="470"><use xlink:href="#a"/><use xlink:href="#1" y="2.171"/><use xlink:href="#2" y="4.342"/></svg><svg x="564"><use xlink:href="#a"/><use xlink:href="#1" y="2.171"/><text y="6.012" class="g">➜</text><text x="2.004" y="6.012" class="p">f</text></svg><svg x="658"><use xlink:href="#a"/><use xlink:href="#1" y="2.171"/><text y="6.012" class="g">➜</text><text x="2.004" y="6.012" class="p">fa</text></svg><svg x="752"><use xlink:href="#a"/><use xlink:href="#1" y="2.171"/><text y="6.012" class="g">➜</text><text x="2.004" y="6.012" class="p">fas</text></svg><svg x="846"><use xlink:href="#a"/><use xlink:href="#1" y="2.171"/><text y="6.012" class="g">➜</text><text x="2.004" y="6.012" class="p">fast</text></svg><svg x="940"><use xlink:href="#a"/><use xlink:href="#1" y="2.171"/><text y="6.012" class="g">➜</text><text x="2.004" y="6.012" class="p">fasti</text></svg><svg x="1034"><use xlink:href="#a"/><use xlink:href="#1" y="2.171"/><use xlink:href="#3" y="4.342"/></svg><svg x="1128"><use xlink:href="#a"/><use xlink:href="#1" y="2.171"/><use xlink:href="#3" y="4.342"/></svg><svg x="1222"><use xlink:href="#a"/><use xlink:href="#1" y="2.171"/><text y="6.012" class="g">➜</text><text x="2.004" y="6.012" class="h">fastic</text><text x="9.018" y="6.012" class="i">8</text></svg><svg x="1316"><use xlink:href="#a"/><use xlink:href="#1" y="2.171"/><text y="6.012" class="g">➜</text><text x="2.004" y="6.012" class="h">fastic</text><text x="9.018" y="6.012" class="i">82</text></svg><svg x="1410"><use xlink:href="#a"/><use xlink:href="#1" y="2.171"/><text y="6.012" class="g">➜</text><text x="2.004" y="6.012" class="h">fastic</text><text x="9.018" y="6.012" class="i">821</text></svg><svg x="1504"><use xlink:href="#a"/><use xlink:href="#1" y="2.171"/><use xlink:href="#4" y="4.342"/></svg><svg x="1598"><use xlink:href="#a"/><use xlink:href="#1" y="2.171"/><use xlink:href="#4" y="4.342"/></svg><svg x="1692"><use xlink:href="#a"/><use xlink:href="#1" y="2.171"/><text y="6.012" class="g">➜</text><text x="2.004" y="6.012" class="h">fastic</text><text x="9.018" y="6.012" class="i">8210</text><text x="14.028" y="6.012" class="j">~</text></svg><svg x="1786"><use xlink:href="#a"/><use xlink:href="#1" y="2.171"/><text y="6.012" class="g">➜</text><text x="2.004" y="6.012" class="h">fastic</text><text x="9.018" y="6.012" class="i">8210</text><text x="14.028" y="6.012" class="j">~/</text></svg><svg x="1880"><use xlink:href="#a"/><use xlink:href="#1" y="2.171"/><text y="6.012" class="g">➜</text><text x="2.004" y="6.012" class="h">fastic</text><text x="9.018" y="6.012" class="i">8210</text><text x="14.028" y="6.012" class="j">~/D</text></svg><svg x="1974"><use xlink:href="#a"/><use xlink:href="#1" y="2.171"/><text y="6.012" class="g">➜</text><text x="2.004" y="6.012" class="h">fastic</text><text x="9.018" y="6.012" class="i">8210</text><text x="14.028" y="6.012" class="j">~/DE</text></svg><svg x="2068"><use xlink:href="#a"/><use xlink:href="#1" y="2.171"/><text y="6.012" class="g">➜</text><text x="2.004" y="6.012" class="h">fastic</text><text x="9.018" y="6.012" class="i">8210</text><text x="14.028" y="6.012" class="j">~/DEV</text></svg><svg x="2162"><use xlink:href="#a"/><use xlink:href="#1" y="2.171"/><text y="6.012" class="g">➜</text><text x="2.004" y="6.012" class="h">fastic</text><text x="9.018" y="6.012" class="i">8210</text><text x="14.028" y="6.012" class="j">~/DEV/</text></svg><svg x="2256"><use xlink:href="#a"/><use xlink:href="#1" y="2.171"/><text y="6.012" class="g">➜</text><text x="2.004" y="6.012" class="h">fastic</text><text x="9.018" y="6.012" class="i">8210</text><text x="14.028" y="6.012" class="j">~/DEV/k</text></svg><svg x="2350"><use xlink:href="#a"/><use xlink:href="#1" y="2.171"/><text y="6.012" class="g">➜</text><text x="2.004" y="6.012" class="h">fastic</text><text x="9.018" y="6.012" class="i">8210</text><text x="14.028" y="6.012" class="j">~/DEV/ke</text></svg><svg x="2444"><use xlink:href="#a"/><use xlink:href="#1" y="2.171"/><text y="6.012" class="g">➜</text><text x="2.004" y="6.012" class="h">fastic</text><text x="9.018" y="6.012" class="i">8210</text><text x="14.028" y="6.012" class="j">~/DEV/kep</text></svg><svg x="2538"><use xlink:href="#a"/><use xlink:href="#1" y="2.171"/><text y="6.012" class="g">➜</text><text x="2.004" y="6.012" class="h">fastic</text><text x="9.018" y="6.012" class="i">8210</text><text x="14.028" y="6.012" class="j">~/DEV/kepi</text></svg><svg x="2632"><use xlink:href="#a"/><use xlink:href="#1" y="2.171"/><text y="6.012" class="g">➜</text><text x="2.004" y="6.012" class="h">fastic</text><text x="9.018" y="6.012" class="i">8210</text><text x="14.028" y="6.012" class="j">~/DEV/kepin</text></svg><svg x="2726"><use xlink:href="#a"/><use xlink:href="#1" y="2.171"/><text y="6.012" class="g">➜</text><text x="2.004" y="6.012" class="h">fastic</text><text x="9.018" y="6.012" class="i">8210</text><text x="14.028" y="6.012" class="j">~/DEV/kepins</text></svg><svg x="2820"><use xlink:href="#a"/><use xlink:href="#1" y="2.171"/><text y="6.012" class="g">➜</text><text x="2.004" y="6.012" class="h">fastic</text><text x="9.018" y="6.012" class="i">8210</text><text x="14.028" y="6.012" class="j">~/DEV/kepinsk</text></svg><svg x="2914"><use xlink:href="#a"/><use xlink:href="#1" y="2.171"/><use xlink:href="#5" y="4.342"/></svg><svg x="3008"><use xlink:href="#a"/><use xlink:href="#1" y="2.171"/><use xlink:href="#5" y="4.342"/></svg><svg x="3102"><use xlink:href="#a"/><use xlink:href="#1" y="2.171"/><use xlink:href="#5" y="4.342"/></svg><svg x="3196"><use xlink:href="#a"/><use xlink:href="#1" y="2.171"/><use xlink:href="#5" y="4.342"/></svg><svg x="3290"><use xlink:href="#a"/><use xlink:href="#1" y="2.171"/><use xlink:href="#5" y="4.342"/><use xlink:href="#6" y="6.513"/></svg><svg x="3384"><use xlink:href="#a"/><use xlink:href="#1" y="2.171"/><use xlink:href="#5" y="4.342"/><use xlink:href="#6" y="6.513"/><use xlink:href="#7" y="10.855"/></svg><svg x="3478"><use xlink:href="#a"/><use xlink:href="#1" y="2.171"/><use xlink:href="#5" y="4.342"/><use xlink:href="#6" y="6.513"/><use xlink:href="#7" y="10.855"/><use xlink:href="#8" y="13.026"/></svg><svg x="3572"><use xlink:href="#a"/><use xlink:href="#1" y="2.171"/><use xlink:href="#5" y="4.342"/><use xlink:href="#6" y="6.513"/><use xlink:href="#7" y="10.855"/><use xlink:href="#8" y="13.026"/><use xlink:href="#9" y="15.197"/></svg><svg x="3666"><use xlink:href="#a"/><use xlink:href="#1" y="2.171"/><use xlink:href="#5" y="4.342"/><use xlink:href="#6" y="6.513"/><use xlink:href="#7" y="10.855"/><use xlink:href="#8" y="13.026"/><use xlink:href="#9" y="15.197"/><use xlink:href="#10" y="17.368"/></svg><svg x="3760"><use xlink:href="#a"/><use xlink:href="#1" y="2.171"/><use xlink:href="#5" y="4.342"/><use xlink:href="#6" y="6.513"/><use xlink:href="#7" y="10.855"/><use xlink:href="#8" y="13.026"/><use xlink:href="#9" y="15.197"/><use xlink:href="#10" y="17.368"/><use xlink:href="#11" y="19.539"/></svg><svg x="3854"><use xlink:href="#a"/><use xlink:href="#1" y="2.171"/><use xlink:href="#5" y="4.342"/><use xlink:href="#6" y="6.513"/><use xlink:href="#7" y="10.855"/><use xlink:href="#8" y="13.026"/><use xlink:href="#9" y="15.197"/><use xlink:href="#10" y="17.368"/><use xlink:href="#11" y="19.539"/><use xlink:href="#12" y="21.71"/></svg><svg x="3948"><use xlink:href="#a"/><use xlink:href="#1" y="2.171"/><use xlink:href="#5" y="4.342"/><use xlink:href="#6" y="6.513"/><use xlink:href="#7" y="10.855"/><use xlink:href="#8" y="13.026"/><use xlink:href="#9" y="15.197"/><use xlink:href="#10" y="17.368"/><use xlink:href="#11" y="19.539"/><use xlink:href="#12" y="21.71"/><use xlink:href="#13" y="23.881"/></svg><svg x="4042"><use xlink:href="#a"/><use xlink:href="#1" y="2.171"/><use xlink:href="#5" y="4.342"/><use xlink:href="#6" y="6.513"/><use xlink:href="#7" y="10.855"/><use xlink:href="#8" y="13.026"/><use xlink:href="#9" y="15.197"/><use xlink:href="#10" y="17.368"/><use xlink:href="#11" y="19.539"/><use xlink:href="#12" y="21.71"/><use xlink:href="#13" y="23.881"/><use xlink:href="#14" y="26.052"/></svg><svg x="4136"><use xlink:href="#a"/><use xlink:href="#1" y="2.171"/><use xlink:href="#5" y="4.342"/><use xlink:href="#6" y="6.513"/><use xlink:href="#7" y="10.855"/><use xlink:href="#8" y="13.026"/><use xlink:href="#9" y="15.197"/><use xlink:href="#10" y="17.368"/><use xlink:href="#11" y="19.539"/><use xlink:href="#12" y="21.71"/><use xlink:href="#13" y="23.881"/><use xlink:href="#14" y="26.052"/><use xlink:href="#9" y="28.223"/></svg><svg x="4230"><use xlink:href="#a"/><use xlink:href="#1" y="2.171"/><use xlink:href="#5" y="4.342"/><use xlink:href="#6" y="6.513"/><use xlink:href="#7" y="10.855"/><use xlink:href="#8" y="13.026"/><use xlink:href="#9" y="15.197"/><use xlink:href="#10" y="17.368"/><use xlink:href="#11" y="19.539"/><use xlink:href="#12" y="21.71"/><use xlink:href="#13" y="23.881"/><use xlink:href="#14" y="26.052"/><use xlink:href="#9" y="28.223"/><use xlink:href="#11" y="30.394"/></svg><svg x="4324"><use xlink:href="#a"/><use xlink:href="#1" y="2.171"/><use xlink:href="#5" y="4.342"/><use xlink:href="#6" y="6.513"/><use xlink:href="#7" y="10.855"/><use xlink:href="#8" y="13.026"/><use xlink:href="#9" y="15.197"/><use xlink:href="#10" y="17.368"/><use xlink:href="#11" y="19.539"/><use xlink:href="#12" y="21.71"/><use xlink:href="#13" y="23.881"/><use xlink:href="#14" y="26.052"/><use xlink:href="#9" y="28.223"/><use xlink:href="#11" y="30.394"/><use xlink:href="#12" y="32.565"/></svg><svg x="4418"><use xlink:href="#a"/><use xlink:href="#1" y="2.171"/><use xlink:href="#5" y="4.342"/><use xlink:href="#6" y="6.513"/><use xlink:href="#7" y="10.855"/><use xlink:href="#8" y="13.026"/><use xlink:href="#9" y="15.197"/><use xlink:href="#10" y="17.368"/><use xlink:href="#11" y="19.539"/><use xlink:href="#12" y="21.71"/><use xlink:href="#13" y="23.881"/><use xlink:href="#14" y="26.052"/><use xlink:href="#9" y="28.223"/><use xlink:href="#11" y="30.394"/><use xlink:href="#12" y="32.565"/><use xlink:href="#13" y="34.736"/></svg><svg x="4512"><use xlink:href="#a"/><use xlink:href="#1" y="2.171"/><use xlink:href="#5" y="4.342"/><use xlink:href="#6" y="6.513"/><use xlink:href="#7" y="10.855"/><use xlink:href="#8" y="13.026"/><use xlink:href="#9" y="15.197"/><use xlink:href="#10" y="17.368"/><use xlink:href="#11" y="19.539"/><use xlink:href="#12" y="21.71"/><use xlink:href="#13" y="23.881"/><use xlink:href="#14" y="26.052"/><use xlink:href="#9" y="28.223"/><use xlink:href="#11" y="30.394"/><use xlink:href="#12" y="32.565"/><use xlink:href="#13" y="34.736"/><use xlink:href="#14" y="36.907"/></svg><svg x="4606"><use xlink:href="#a"/><use xlink:href="#1" y="2.171"/><use xlink:href="#5" y="4.342"/><use xlink:href="#6" y="6.513"/><use xlink:href="#7" y="10.855"/><use xlink:href="#8" y="13.026"/><use xlink:href="#9" y="15.197"/><use xlink:href="#10" y="17.368"/><use xlink:href="#11" y="19.539"/><use xlink:href="#12" y="21.71"/><use xlink:href="#13" y="23.881"/><use xlink:href="#14" y="26.052"/><use xlink:href="#9" y="28.223"/><use xlink:href="#11" y="30.394"/><use xlink:href="#12" y="32.565"/><use xlink:href="#13" y="34.736"/><use xlink:href="#14" y="36.907"/><use xlink:href="#15" y="39.078"/></svg><svg x="4700"><use xlink:href="#a"/><use xlink:href="#1" y="2.171"/><use xlink:href="#5" y="4.342"/><use xlink:href="#6" y="6.513"/><use xlink:href="#7" y="10.855"/><use xlink:href="#8" y="13.026"/><use xlink:href="#9" y="15.197"/><use xlink:href="#10" y="17.368"/><use xlink:href="#11" y="19.539"/><use xlink:href="#12" y="21.71"/><use xlink:href="#13" y="23.881"/><use xlink:href="#14" y="26.052"/><use xlink:href="#9" y="28.223"/><use xlink:href="#11" y="30.394"/><use xlink:href="#12" y="32.565"/><use xlink:href="#13" y="34.736"/><use xlink:href="#14" y="36.907"/><use xlink:href="#15" y="39.078"/><use xlink:href="#16" y="41.249"/></svg><svg x="4794"><use xlink:href="#a"/><use xlink:href="#1" y="2.171"/><use xlink:href="#5" y="4.342"/><use xlink:href="#6" y="6.513"/><use xlink:href="#7" y="10.855"/><use xlink:href="#8" y="13.026"/><use xlink:href="#9" y="15.197"/><use xlink:href="#10" y="17.368"/><use xlink:href="#11" y="19.539"/><use xlink:href="#12" y="21.71"/><use xlink:href="#13" y="23.881"/><use xlink:href="#14" y="26.052"/><use xlink:href="#9" y="28.223"/><use xlink:href="#11" y="30.394"/><use xlink:href="#12" y="32.565"/><use xlink:href="#13" y="34.736"/><use xlink:href="#14" y="36.907"/><use xlink:href="#15" y="39.078"/><use xlink:href="#16" y="41.249"/><use xlink:href="#17" y="43.42"/></svg><svg x="4888"><use xlink:href="#a"/><use xlink:href="#1" y="2.171"/><use xlink:href="#5" y="4.342"/><use xlink:href="#6" y="6.513"/><use xlink:href="#7" y="10.855"/><use xlink:href="#8" y="13.026"/><use xlink:href="#9" y="15.197"/><use xlink:href="#10" y="17.368"/><use xlink:href="#11" y="19.539"/><use xlink:href="#12" y="21.71"/><use xlink:href="#13" y="23.881"/><use xlink:href="#14" y="26.052"/><use xlink:href="#9" y="28.223"/><use xlink:href="#11" y="30.394"/><use xlink:href="#12" y="32.565"/><use xlink:href="#13" y="34.736"/><use xlink:href="#14" y="36.907"/><use xlink:href="#15" y="39.078"/><use xlink:href="#16" y="41.249"/><use xlink:href="#17" y="43.42"/><use xlink:href="#18" y="45.591"/></svg><svg x="4982"><use xlink:href="#a"/><use xlink:href="#1" y="2.171"/><use xlink:href="#5" y="4.342"/><use xlink:href="#6" y="6.513"/><use xlink:href="#7" y="10.855"/><use xlink:href="#8" y="13.026"/><use xlink:href="#9" y="15.197"/><use xlink:href="#10" y="17.368"/><use xlink:href="#11" y="19.539"/><use xlink:href="#12" y="21.71"/><use xlink:href="#13" y="23.881"/><use xlink:href="#14" y="26.052"/><use xlink:href="#9" y="28.223"/><use xlink:href="#11" y="30.394"/><use xlink:href="#12" y="32.565"/><use xlink:href="#13" y="34.736"/><use xlink:href="#14" y="36.907"/><use xlink:href="#15" y="39.078"/><use xlink:href="#16" y="41.249"/><use xlink:href="#17" y="43.42"/><use xlink:href="#18" y="45.591"/></svg><svg x="5076"><use xlink:href="#a"/><use xlink:href="#1" y="2.171"/><use xlink:href="#5" y="4.342"/><use xlink:href="#6" y="6.513"/><use xlink:href="#7" y="10.855"/><use xlink:href="#8" y="13.026"/><use xlink:href="#9" y="15.197"/><use xlink:href="#10" y="17.368"/><use xlink:href="#11" y="19.539"/><use xlink:href="#12" y="21.71"/><use xlink:href="#13" y="23.881"/><use xlink:href="#14" y="26.052"/><use xlink:href="#9" y="28.223"/><use xlink:href="#11" y="30.394"/><use xlink:href="#12" y="32.565"/><use xlink:href="#13" y="34.736"/><use xlink:href="#14" y="36.907"/><use xlink:href="#15" y="39.078"/><use xlink:href="#16" y="41.249"/><use xlink:href="#17" y="43.42"/><use xlink:href="#18" y="45.591"/></svg><svg x="5170"><use xlink:href="#a"/><use xlink:href="#1" y="2.171"/><use xlink:href="#5" y="4.342"/><use xlink:href="#6" y="6.513"/><use xlink:href="#7" y="10.855"/><use xlink:href="#8" y="13.026"/><use xlink:href="#9" y="15.197"/><use xlink:href="#10" y="17.368"/><use xlink:href="#11" y="19.539"/><use xlink:href="#12" y="21.71"/><use xlink:href="#13" y="23.881"/><use xlink:href="#14" y="26.052"/><use xlink:href="#9" y="28.223"/><use xlink:href="#11" y="30.394"/><use xlink:href="#12" y="32.565"/><use xlink:href="#13" y="34.736"/><use xlink:href="#14" y="36.907"/><use xlink:href="#15" y="39.078"/><use xlink:href="#16" y="41.249"/><use xlink:href="#17" y="43.42"/><use xlink:href="#18" y="45.591"/></svg><svg x="5264"><use xlink:href="#a"/><use xlink:href="#1" y="2.171"/><use xlink:href="#5" y="4.342"/><use xlink:href="#6" y="6.513"/><use xlink:href="#7" y="10.855"/><use xlink:href="#8" y="13.026"/><use xlink:href="#9" y="15.197"/><use xlink:href="#10" y="17.368"/><use xlink:href="#11" y="19.539"/><use xlink:href="#12" y="21.71"/><use xlink:href="#13" y="23.881"/><use xlink:href="#14" y="26.052"/><use xlink:href="#9" y="28.223"/><use xlink:href="#11" y="30.394"/><use xlink:href="#12" y="32.565"/><use xlink:href="#13" y="34.736"/><use xlink:href="#14" y="36.907"/><use xlink:href="#15" y="39.078"/><use xlink:href="#16" y="41.249"/><use xlink:href="#17" y="43.42"/><use xlink:href="#18" y="45.591"/><use xlink:href="#19" y="49.933"/><use xlink:href="#20" y="52.104"/></svg><svg x="5358"><use xlink:href="#a"/><use xlink:href="#1" y="2.171"/><use xlink:href="#5" y="4.342"/><use xlink:href="#6" y="6.513"/><use xlink:href="#7" y="10.855"/><use xlink:href="#8" y="13.026"/><use xlink:href="#9" y="15.197"/><use xlink:href="#10" y="17.368"/><use xlink:href="#11" y="19.539"/><use xlink:href="#12" y="21.71"/><use xlink:href="#13" y="23.881"/><use xlink:href="#14" y="26.052"/><use xlink:href="#9" y="28.223"/><use xlink:href="#11" y="30.394"/><use xlink:href="#12" y="32.565"/><use xlink:href="#13" y="34.736"/><use xlink:href="#14" y="36.907"/><use xlink:href="#15" y="39.078"/><use xlink:href="#16" y="41.249"/><use xlink:href="#17" y="43.42"/><use xlink:href="#18" y="45.591"/><use xlink:href="#19" y="49.933"/><use xlink:href="#20" y="52.104"/></svg><svg x="5452"><use xlink:href="#a"/><use xlink:href="#1" y="2.171"/><use xlink:href="#5" y="4.342"/><use xlink:href="#6" y="6.513"/><use xlink:href="#7" y="10.855"/><use xlink:href="#8" y="13.026"/><use xlink:href="#9" y="15.197"/><use xlink:href="#10" y="17.368"/><use xlink:href="#11" y="19.539"/><use xlink:href="#12" y="21.71"/><use xlink:href="#13" y="23.881"/><use xlink:href="#14" y="26.052"/><use xlink:href="#9" y="28.223"/><use xlink:href="#11" y="30.394"/><use xlink:href="#12" y="32.565"/><use xlink:href="#13" y="34.736"/><use xlink:href="#14" y="36.907"/><use xlink:href="#15" y="39.078"/><use xlink:href="#16" y="41.249"/><use xlink:href="#17" y="43.42"/><use xlink:href="#18" y="45.591"/><use xlink:href="#19" y="49.933"/><use xlink:href="#20" y="52.104"/></svg></svg></g></g></svg></svg>